<?xml version="1.0" encoding="UTF-8"?>
<svg id="clt" width="2324" height="1042" version="1.1" viewBox="0 0 2324 1042" xmlns="http://www.w3.org/2000/svg" xmlns:cc="http://creativecommons.org/ns#" xmlns:dc="http://purl.org/dc/elements/1.1/" xmlns:rdf="http://www.w3.org/1999/02/22-rdf-syntax-ns#">
  <defs>
    <filter id="filter3957" x="-.004118" y="-.1071" width="1.008" height="1.214" name="filter3957">
      <feGaussianBlur result="feGaussianBlur3959" stdDeviation="3.112"/>
    </filter>
    <filter id="filter3993" x="-.02187" y="-.1161" width="1.044" height="1.232" name="filter3993">
      <feGaussianBlur result="feGaussianBlur3995" stdDeviation="2.929"/>
    </filter>
  </defs>
  <title>clt</title>
  <g>
    <rect x="2.5" y="2.5" width="2319" height="1037" style="fill:#ffffff"/>
  </g>
  <g>
    <path transform="translate(13.79 22.26)" d="m1816 746.6c-71.69 0.034-150.4 4.08-204.4 6.747-66.52 3.51-124.1 7.675-172.9 12.07l-24.78 2.027-0.218 0.314c-46.06 4.491-83.26 9.134-111.8 13.49l-4.153 0.182c-80.11 5.613-130.4 7.485-174.7 7.3q-7.245-1.268-14.58-2.345c50.26-13.65 14.97-25.06-74.03-27.69-11.66-0.344-24.24-0.537-37.68-0.564-94.05-0.184-229.8 7.772-381.5 28.77l2.9 0.276c44.04-4.822 90.28-8.828 137.6-12.49-46.13 4.528-93.4 9.469-143.7 15.55-45.4 0.142-80.47 0.915-115.7 1.683l-2.508-2.239c-3.91-1.858-13.03-1.426-21.93-1.089-42.33 1.939-76.93 4.12-114.7 6.2l-0.066 0.022q-5.309 0.1-10.62 0.2l-3.639-3.809c-5.406-0.788-15.51-0.673-27.43-0.212l-136.1 6.4c-43.5 3.209-107.2 10.02 10.82 6.846 34.46-1.172 81.4-3.14 113.6-1.989l0.476-0.08c55.19 1.848 79.7 4.259 234.1 4.289 8.16 1.259 9.438 3.079 48.61 1.8 109.2 0.931 209.6 2.416 357.9-1.433l0.487 0.083c28.85 1.149 79.99 0.568 133.5-0.193 30.88 0.094 55.63 0.666 95.7 0.046 60.52-1.5 108.9-5.069 153.5-9.267-13.81 1.912-26.27 3.611-36.02 4.906 37.48-2.262 84.32-4.5 129.6-6.842-0.419 0.065-0.819 0.131-1.253 0.2-37.62 1.211-126.5 9.072-167.3 12.88 43.83 0.255 137-1.8 195.4-5.159 2.842-0.164 6.1-0.347 9.494-0.537l10.76 2.186c8.989 1.093 22.32 1.508 43.73 0.666l145.9-5.175c13.74-0.718 31.96-1.243 40.91-2.284 0.4 0.494 0.462 1.011 5.6 1.154a84.42 84.42 0 0 0 15.06-2.395l1.025 0.768 7.292 0.28 4.769-0.6 7.028-1.842 7.953 0.556 6.808-2.762-5.206 0.069c17.35-0.942 35.72-2.267 53.92-3.96 52.03-1.568 104-2.945 162.6-7.584 4.617-0.365 8.166-0.693 10.79-1.014a18.68 18.68 0 0 0 4.84-0.945c0.959-0.6-2.412-1.042-8.653-1.54l-64.72-5.155c1.659-0.5 3.221-1 4.715-1.5 4.577-0.314 8.978-0.634 13.15-0.972l-11.79 0.514c5.428-1.874 9.891-3.75 14.22-5.624l1.108-0.038a22.48 22.48 0 0 0 3.644-2.727l102.8-7.5c5.319-0.388 9.631-0.734 13.01-1.056a73.28 73.28 0 0 0 7.3-0.934c1.414-0.309 1.5-0.6 0.455-0.84a50.23 50.23 0 0 0-6.247-0.654c-21.32-1.423-46.49-1.909-73.29-1.993-21.53-0.068-44.09 0.122-66.51 0.291-1.614-0.205-3.32-0.4-5.105-0.59l-1.574-0.257-0.269 0.064c-8.245-0.814-18.25-1.457-30.12-1.918-18.28-0.738-37.8-1.041-57.88-1.032zm133.1 13.12-1.272 0.132c0.121-0.025 0.212-0.047 0.328-0.072l0.944-0.06zm-951.7 19.16c22.81 0.015 40.92 0.586 53.84 1.834-38.8-2.143-79.1-1.233-120.4 1.713-27.8 1.29-55.27 2.395-88.37 6.665-46.45-0.2-89.41-0.157-147.4 1.6l0.189-0.046c-22.11-0.267-42.02-0.4-60.26-0.427 57.02-3.919 117.5-7.322 178.2-10.7-36.56 2.726-72.85 5.7-108.6 9.183l0.791 0.465c114.1-5.383 209.6-9.561 274.6-10.2q9.135-0.09 17.46-0.087zm554.9 18.96c0.877 0.044 1.8 0.083 2.747 0.121-4.131 0.147-8.219 0.3-12.21 0.458-0.094-0.014-0.192-0.027-0.286-0.042l9.716-0.514z" style="fill:#bdc1c4"/>
    <g style="filter:url(#filter3957)">
      <path transform="translate(13.79 22.26)" d="m130 775.2-0.115 47.14c226.1 19.17 618.5 13.77 946.1 7.349 319.2-6.254 644.1-2.046 867.8-63.78z" style="fill:#bdc1c4"/>
    </g>
    <g style="filter:url(#filter3993)">
      <path transform="translate(13.79 22.26)" d="m1529 817.8s25 25.82 60 26.5c77.64 1.519 261.5-60.5 261.5-60.5z" style="fill:#d2d2d2"/>
    </g>
  </g>
  <g>
    <path transform="translate(13.79 22.26)" d="m1362 783.9c6.159-7.477 27.98-5.8 34.65-8.732 22.22-30.8 62.38-48.18 89.47-55.85 16-49.13-40.86-107.5-49.24-172.1l113-90 89 279.5c-22.35 11.5-63.8 13.5-84.92 26.24-15.52 9.368-69.23 16.64-91.88 18.17-18.18 1.225-67.22 3.523-100.1 2.744z" style="fill:#b01b1b"/>
    <path transform="translate(13.79 22.26)" d="m1377 774.3c52.75-32.39 136.4-64.14 186-101l-25-170-102.9 50.95c-9.78 48.62-35.53 168.9-58.08 220z" style="fill:#151515"/>
  </g>
  <g>
    <path transform="translate(13.79 22.26)" d="m1643 737.3c-32.5 15.51-63.15 16.66-110 35.92-28.98 9.054-122.6 8.891-197 14.46 33.62-2.436 43.4-12.14 61.6-11.65 31.3-35.34 45.44-36.91 87.33-55.32" style="fill:none;stroke-miterlimit:4.9;stroke-width:5px;stroke:#db1e1e"/>
    <path transform="translate(13.79 22.26)" d="m1492 716.6c-37.58 16.41-78.86 36.39-114.6 56.57l33.59-70.36" style="fill:none;stroke-width:5px;stroke:#db1e1e"/>
  </g>
  <g>
    <path transform="translate(13.79 22.26)" d="m321.6 728.6c30.33-19.23 56.77-39.02 92.82-57.43 7.939-3.308 15.63-7.393 29.28 7.1l14.06 17.62c52.56-13.2 113.8-27.81 217.9-18.69l1.375 38-353.9 18.57z" style="fill:#d2d2d2"/>
    <path transform="translate(13.79 22.26)" d="m841 664.8c-82.27-3.015-159.3-9.916-261.4 46.27-106.1-24.37-185.3 1.9-268.8 20.09l-20.99 0.871-0.434 54.64 11.8 4.239c69.36 10.77 108 28.26 275.7 17.54 15.21 9.425 24.24 24.78 61 14.25 132.4 8.292 256.7 21.93 416.5-20.15z" style="fill:#fefeff"/>
    <path transform="translate(13.79 22.26)" d="m311.2 731.1-23.22-30.01c-9.85-5.884-20.23-4.266-30.81 0.244l-115.1 60.5c-30.88 28.59-65.44 87.29 46.38 53.66 31.41-11.76 72.31-30.73 113.1-23.87z" style="fill:#fefeff"/>
  </g>
  <g>
    <path transform="translate(13.79 22.26)" d="m1535 589.1c-14.73 2.534-29.6 5.253-41.66 4.078l-30.39-9.2-52.99-19.37-123.4 66.75c-66.17 39.48-106 31.46-155 29.89-112.7-86.66-185.8-91.76-237.2-52-24.36 10.67-49.2 19.81-65.79 55.16l192.6 147.1c36.53 9.489 89.45 4.7 144.1-1.591 33.95 0.777 39.08-0.959 80.1-1.679 96.24-9.658 139.3-40.1 188.3-94.12 29.75-27.52 72.23-36.54 114.9-35.79z" style="fill:#fefeff"/>
  </g>
  <g>
    <g>
      <path transform="translate(13.79 22.26)" d="M981.7,760.774q-2.976-3.117-5.879-6.184c-4.7-4.974-9.255-9.892-13.605-14.912s-8.492-10.144-12.379-15.491c-6.929.463-13.366.713-19.6.916s-12.267.362-18.4.564l-1.471.05-12.543.427c-4.318.148-8.8.3-13.543.455s-9.738.3-15.087.415-11.05.195-17.2.181q-3.759,1.012-7.751,1.98c8.466.358,16.1.518,23.138.627s13.464.164,19.491.226q3.976,6.064,7.991,12.115c2.667,4.043,5.326,8.1,7.958,12.212,3.233.533,6.395,1.055,9.526,1.549.5.08,1,.158,1.506.236,7.362,1.155,14.649,2.192,22.288,2.952,3.377.335,6.821.617,10.363.843s7.18.4,10.942.515,7.649.19,11.684.233S977.343,760.743,981.7,760.774Z" style="fill:none;stroke-miterlimit:8.05;stroke-width:1.6;stroke:#bdc1c4"/>
      <path transform="translate(13.79 22.26)" d="m963.7 760.2q-0.91 0.406-1.809 0.813-1.77-2.077-3.5-4.156c-5.376-6.468-10.44-12.98-15.2-19.72q1.291 0.078 2.6 0.147c4.661 6.583 9.624 12.95 14.87 19.29q1.507 1.811 3.036 3.621z" style="fill:#bdc1c4"/>
      <path transform="translate(13.79 22.26)" d="m939.3 758.9-1.26 0.7q-0.21-0.3-0.418-0.6-4.008-5.778-7.775-11.57t-7.341-11.68l1.833 0.214q3.519 5.81 7.245 11.51t7.685 11.38z" style="fill:#bdc1c4"/>
      <path transform="translate(13.79 22.26)" d="m976 679.8c-1.762 2.519-3.495 5.063-5.2 7.63-3.679 5.521-7.241 11.12-10.67 16.7s-6.731 11.17-9.866 16.73l-0.574 1.022c-6.912 0.413-13.34 0.613-19.56 0.775s-12.25 0.285-18.37 0.463l-1.469 0.045c-4.074 0.126-8.223 0.256-12.54 0.4s-8.795 0.293-13.53 0.443-9.726 0.3-15.07 0.405-11.03 0.18-17.17 0.147l-3.068-0.862c-1.499-0.422-3.02-0.8527-4.565-1.292 8.4-0.053 15.98-0.35 22.96-0.729s13.36-0.843 19.34-1.3c2.47-4.286 4.92-8.663 7.35-13.13s4.817-9.037 7.161-13.71c3.148-0.8 6.232-1.571 9.285-2.3 0.4893-0.1167 0.9777-0.2323 1.465-0.347 3.087-0.723 6.158-1.395 9.243-2.019s6.184-1.2 9.323-1.734c3.467-0.593 6.982-1.14 10.57-1.672s7.26-1.048 11.03-1.593 7.634-1.118 11.62-1.776z" style="fill:none;stroke-miterlimit:8.05;stroke-width:1.6;stroke:#bdc1c4"/>
      <path transform="translate(13.79 22.26)" d="m959.2 682.3q-1.234 0.271-2.455 0.536-1.651 2.539-3.247 5.1c-4.265 6.845-8.256 13.76-12.03 20.65q1.251-0.192 2.517-0.389c3.659-6.752 7.529-13.53 11.65-20.24q1.748-2.838 3.559-5.654z" style="fill:#bdc1c4"/>
      <path transform="translate(13.79 22.26)" d="m936.2 685.7-1.651 0.239q-0.384 0.69-0.766 1.379-3.328 6.03-6.438 12.04t-6.076 11.94l1.794-0.319q2.88-5.844 5.92-11.76t6.29-11.85q0.463-0.836 0.927-1.672z" style="fill:#bdc1c4"/>
      <path transform="translate(13.79 22.26)" d="M962.755,650.4c-1.331.483-2.25.856-3.062,1.191s-1.517.632-2.407.975c-1.629.731-3.308,1.368-4.952,2.055a31.465,31.465,0,0,0-4.729,2.361c-1.863,5.076-3.367,10.217-4.693,15.326s-2.473,10.188-3.582,15.175l-.192.864c-.857.641-1.48,1.149-1.766,1.127s-.237-.574.271-2.055l.038-.109c.907-4.654,2.09-9.509,3.377-14.407s2.684-9.836,3.987-14.675c-1.667.732-2.662,1.364-3.807,1.938-5.038,2.687-9.86,5.444-14.615,8.613-1.338,6.209-2.554,12.278-3.7,18.221q-1.191,6.2-2.285,12.233c-.5.176-2.6,2.334-1.784.511.653-4.1,1.414-8.392,2.233-12.761,1.031-5.5,2.155-11.118,3.264-16.622a4.369,4.369,0,0,0-1.1.664c-.6.41-1.31.913-1.794,1.214-3.013,2.1-6.159,4.189-9.207,6.427q-.754.555-1.5,1.12c-1.463,1.113-2.9,2.263-4.273,3.461q-.4,2.073-.785,4.071c-1.394,7.258-2.657,13.885-4.089,20.623a23.859,23.859,0,0,0-.43,2.723,2.187,2.187,0,0,1-1.674,1.91c-.726.864-.709.219-.506-.771s.595-2.33.6-2.837c1.285-6.982,2.865-14.136,4.2-21.55q.166-.927.33-1.859c.388-1.052-.136-.714-.881-.071a11.972,11.972,0,0,1-2.2,1.749c-.16.125-.322.25-.483.373-2.161,1.65-4.458,3.166-6.573,4.971-1.031,5.189-2.015,10.3-3,15.292s-1.956,9.862-3.014,14.581q-.6.3-1.209.6c-2.016.989-4.094,1.934-6.236,2.851-3.894,1.667-8,3.239-12.321,4.8s-8.849,3.118-13.543,4.759c-2.158.58-3.375.923-3.9,1.122s-.36.252.165.247,1.4-.069,2.308-.108a14.145,14.145,0,0,1,2.477.048c.858-.156,1.728.142,2.54-.084,4.783-1.332,9.38-2.827,13.76-4.357s8.546-3.094,12.492-4.546q2.777-1.082,5.439-2.179,3.509-1.444,6.852-2.91c4.605-2.013,9.014-4.047,13.338-6.076l1.457-.682c5.849-2.739,11.612-5.419,17.54-8.03s12.024-5.152,18.461-7.73c1.163-4.058,2.089-8.182,3.023-12.342,1.011-4.49,2.034-9.024,3.395-13.521,1.124-3.873,2.368-7.751,3.766-11.627s2.949-7.749,4.707-11.619c.084-.224.168-.448.254-.672Z" style="fill:#ff2424"/>
      <path transform="translate(13.79 22.26)" d="M967.491,792.6c-1.4-.433-2.367-.773-3.219-1.079s-1.592-.576-2.525-.885c-1.7-.673-3.464-1.244-5.182-1.869a31.973,31.973,0,0,1-4.933-2.183c-1.895-4.879-3.508-9.666-5-14.338s-2.876-9.232-4.259-13.688q-.24-.774-.48-1.544a5.547,5.547,0,0,0-1.9-.944c-.289.049-.19.587.45,1.993.06.218.122.436.184.655,1.182,4.177,2.592,8.536,4.046,13.01s2.954,9.064,4.3,13.71c-1.735-.667-2.771-1.258-3.962-1.785-5.242-2.478-10.247-5.015-15.2-7.877-1.492-5.547-2.922-10.832-4.319-15.99-1.094-4.033-2.16-8-3.2-11.955-.514-.139-2.778-2.042-1.843-.389.956,4.026,2.039,8.192,3.169,12.437,1.263,4.744,2.577,9.6,3.831,14.47-.03.119-2-1.139-3.01-1.67-3.15-1.868-6.436-3.687-9.636-5.6q-.792-.472-1.575-.953c-1.528-.941-3.03-1.91-4.481-2.921q-.4-1.455-.787-2.866c-.94-3.416-1.832-6.673-2.721-9.893s-1.775-6.4-2.707-9.658a20.827,20.827,0,0,1-.573-2.548,2.1,2.1,0,0,0-1.786-1.711c-.775-.779-.726-.162-.472.769s.716,2.174.75,2.653c1.711,6.772,3.774,13.467,5.57,20.408q.114.438.225.879c.35.726.094.719-.409.425s-1.253-.873-1.891-1.291a3.445,3.445,0,0,0-.915-.475c-2.432-1.494-5.046-2.79-7.466-4.4-1.319-4.659-2.562-9.3-3.775-13.939s-2.395-9.266-3.647-13.86q-2.274-.965-4.638-1.869c-2.177-.836-4.412-1.64-6.7-2.434-3.413-1.182-6.954-2.339-10.608-3.545s-7.42-2.46-11.258-3.846c-2.1-.579-3.273-.938-3.777-1.143s-.344-.259.166-.251,1.364.077,2.244.115a12.6,12.6,0,0,0,2.413-.064c.833.15,1.684-.167,2.474.05,4.652,1.278,9.17,2.636,13.518,3.984s8.524,2.686,12.5,3.9l1.526.5q3.649,1.2,7.139,2.422c6.085,2.121,11.847,4.283,17.5,6.424l1.5.569c6.046,2.3,12.033,4.6,18.237,6.766s12.625,4.185,19.492,5.963c1.634,3.961,2.976,8,4.3,12.091,1.266,3.908,2.512,7.879,4.013,11.864q1.98,5.475,4.216,11.136c1.5,3.78,3.1,7.636,4.853,11.587q.123.345.249.691Z"/>
    </g>
  </g>
  <g>
    <path transform="translate(13.79 22.26)" d="m841.8 664.7c-58.51-3.031-195-5.474-270.1 53.05" style="fill:none;stroke-miterlimit:4.9;stroke-width:3px;stroke:#000"/>
    <path transform="translate(13.79 22.26)" d="m580.5 710.8c-109.7-25.42-186.8 2.869-270.4 20.52" style="fill:none;stroke-miterlimit:4.9;stroke-width:3px;stroke:#000"/>
    <path transform="translate(13.79 22.26)" d="m1055 802.9c-138.7 39.33-280.4 29.4-419.1 19.94" style="fill:none;stroke-miterlimit:4.9;stroke-width:3px;stroke:#000"/>
    <path transform="translate(13.79 22.26)" d="m642.5 819.8c-23.46 13.1-48.42 5.753-68.74-14.65" style="fill:none;stroke-miterlimit:4.9;stroke-width:3px;stroke:#000"/>
    <path transform="translate(13.79 22.26)" d="m576.5 808.7c-110 10.57-195.1-2.045-277-17.52" style="fill:none;stroke-miterlimit:4.9;stroke-width:3px;stroke:#000"/>
    <path transform="translate(13.79 22.26)" d="m311.1 730.9-19.72-25.28c-6.144-7.252-12.58-13.48-36.02-3.667-35.16 15.06-113.7 60.58-113.7 60.58-16.65 12.54-33.25 40.02-28.71 53.96 8.893 18.58 43.7 6.562 75.35-1.741 59.84-24.45 89.64-26.17 112.9-22.98" style="fill:none;stroke-miterlimit:4.9;stroke-width:3px;stroke:#000"/>
    <path transform="translate(13.79 22.26)" d="m130.3 826c13.61-2.124 18.97-5.506 25.29-8.741" style="fill:none;stroke-miterlimit:4.9;stroke-width:3px;stroke:#000"/>
    <path transform="translate(13.79 22.26)" d="m116.2 822c9.145-2.835 18.28-5.751 27.25-11.35" style="fill:none;stroke-miterlimit:4.9;stroke-width:3px;stroke:#000"/>
    <path transform="translate(13.79 22.26)" d="m112.7 807c8.4-2.427 16.6-6.947 24.76-11.54" style="fill:none;stroke-miterlimit:4.9;stroke-width:3px;stroke:#000"/>
    <path transform="translate(13.79 22.26)" d="m319.9 729.6c28.08-18.51 52.9-36.19 86.1-54.17 15.38-8.334 23.13-13 36.99 2.186l15.03 18.5" style="fill:none;stroke-miterlimit:4.9;stroke-width:3px;stroke:#000"/>
    <path transform="translate(13.79 22.26)" d="m457.7 695.8c54.95-16.46 132.4-27.06 207-19.33" style="fill:none;stroke-miterlimit:4.9;stroke-width:3px;stroke:#000"/>
  </g>
  <g>
    <path transform="translate(13.79 22.26)" d="m1616 691 123.4-18.75 7.983 69.76-114.6 28.74z" style="fill:#fff"/>
    <path transform="translate(13.79 22.26)" d="m1615 716c2.3 12.86 27.85 15.02 43.02 13.29 16.06-1.833 41.67-10.12 39.93-23.82-1.713-13.49-28.45-17.11-44.27-15.19-16.15 1.964-41.15 12.02-38.69 25.72z" style="fill:#ef2323"/>
    <path transform="translate(13.79 22.26)" d="m1626 716.8c2.368 9.751 22.54 10.17 34.39 8.107 12.54-2.184 32.31-9.784 30.35-20.2-1.932-10.27-23.1-11.74-35.45-9.5-12.61 2.285-31.82 11.2-29.29 21.59z"/>
    <path transform="translate(13.79 22.26)" d="m1642 720.8-4.4 8.435c-2.112-0.387-4.109-0.732-6.969-1.386l3.142-13.67z"/>
    <path transform="translate(13.79 22.26)" d="m1667 698.4c-9.235 0.7-25.31 3.952-23.62 11.62 1.674 7.59 18.06 6.6 27.11 5.459 7.834-0.99 21.13-3.615 20.03-10.22-1.14-6.794-15.38-7.483-23.52-6.863z" style="fill:#fff"/>
  </g>
  <g>
    <path transform="translate(13.79 22.26)" d="m1584 529 135-11.48 4.685 103.5-143.1 1.246z" style="fill:#fff"/>
    <path transform="translate(13.79 22.26)" d="m1586 580.4c-2.152-15.91 24.11-25.75 40.8-28.03 17.65-2.4 47.72 0.128 50.76 16.86 3 16.49-24.01 28.41-41.43 30.63-17.8 2.275-47.84-2.522-50.13-19.47z" style="fill:#ef2323"/>
    <path transform="translate(13.79 22.26)" d="m1598 576.2c-0.973-12.24 20.22-18.49 33.51-19.42 14.06-0.986 37.69 2.392 39.33 15.3 1.619 12.73-20.26 20.52-34.13 21.38-14.16 0.88-37.67-4.224-38.71-17.26z"/>
    <path transform="translate(13.79 22.26)" d="m1613 567-7.664-8.751c-2.1 1.061-4.087 2.04-6.881 3.63l8.2 15.31z"/>
    <path transform="translate(13.79 22.26)" d="m1644 562.9c-9.76 1.1-26.79 5.576-25.18 15.23 1.593 9.556 18.9 7.933 28.47 6.28 8.288-1.43 22.38-5.053 21.36-13.38-1.046-8.562-16.05-9.108-24.65-8.138z" style="fill:#fff"/>
  </g>
  <g>
    <path transform="translate(13.79 22.26)" d="m1535 589.1c-16.98 2.507-36.01 7.832-50.17 2.28-51.1-20.03-74.61-25.71-107.1-14.14-43.96 15.64-81.79 41.67-114 66.42-21.33 16.39-42.2 14.19-132.9 17.48-101-80.25-180-96.76-237.6-51.62" style="fill:none;stroke-miterlimit:4.9;stroke-width:3px;stroke:#000"/>
    <path transform="translate(13.79 22.26)" d="m1111 675.7c69.88-1.721 124.3 1.639 160.5-23.91" style="fill:none;stroke-miterlimit:4.9;stroke-width:1.5px;stroke:#000"/>
    <path transform="translate(13.79 22.26)" d="m1096 673.2a21.08 21.08 0 0 1-9.9-6.364c-86.92-86.98-218.4-83.39-257-2.475" style="fill:none;stroke-miterlimit:4.9;stroke-width:3px;stroke:#000"/>
    <path transform="translate(13.79 22.26)" d="m1548 678.4c-52.77 1.609-94.69 12.95-121.3 42.82-48.08 53.89-93.77 79.91-182.5 86.92-28.68 2.265-59.08 0.23-87.36 2.647-26.6 2.273-64.19 6.971-85.55 6.855-20.28-0.11-37.51-2.429-51-6" style="fill:none;stroke-miterlimit:4.9;stroke-width:3px;stroke:#000"/>
  </g>
  <g>
    <path transform="translate(13.79 22.26)" d="m1415 731.6c-8.692 16.02-17.74 35.61-36.6 43.1-11.34 4.5-7.231 2.822-24.55 1.853" style="fill:#fefeff;stroke-width:3px;stroke:#000"/>
    <path transform="translate(13.79 22.26)" d="m1407 738.8c-22.66 28.59-36.79 45.22-54.5 52.73-13.32 5.653-39.77 7.46-51.58 2.757" style="fill:#fefeff;stroke-width:3px;stroke:#000"/>
  </g>
  <g>
    <path transform="translate(13.79 22.26)" d="m1110 667.3c-0.419-3.34-5.825-5.765-6.319-9.044-21.85-290.8-396.2-357.3-523.7-24.46a565.1 565.1 0 0 1 100-99.5l94 38.5c-34.56 22.14-64.07 53.61-92 88 115.8-45.57 313.8-166.5 401 4l2 4.9c8.332-0.6 16.67 3.251 25-2.4z" style="fill:#ff2424"/>
    <path transform="translate(13.79 22.26)" d="m577 692.8c51.01-41.67 118.3-80.3 190.5-118l-15 14.5c150-61.99 274.5-62.57 339.5 80h10.5c-89.15-219.1-329.6-269.5-447.5-116.5l30.5-22.5c-45.7 52.12-81.46 106.4-108.5 162.5z" style="fill:#1f1f1f"/>
    <path transform="translate(13.79 22.26)" d="m735.4 604.3 50.93 13-38.75 15.5-30.33-10.46zm-92.54-39.71-6.968-14.44 1.242-17.65 28.13-33.66-4.491 28.37 4.063 18.29zm23.86-10.63 14.73 29.7 36.87 17.59-24.36 13.05-31.28-16.76-13.62-20.12z" style="fill:#fff"/>
    <path transform="translate(13.79 22.26)" d="m1036 602.1 17.22 5.36 16.29-2.64 20.11-26.29 5.112 10.02-20.23 24.5-14.42 2.411-16.99-0.45z" style="fill:#fff"/>
    <path transform="translate(13.79 22.26)" d="m1085 669.7c-67.1-145.7-207.3-95.99-406.4-7 29.21-36.58 63.18-66.5 98.92-93.91-72.32 39.88-145.8 78.88-204.2 129 35.02-70.17 73.49-122.7 112.8-170.7-42.19 34.74-81.56 72.64-112.4 120 158.5-395 530.6-226.1 528.9 11.17 0.815 4.235 1.054 5.978 4.625 8.375 5.205 2.623-4.183 7.444-22.25 3.044z" style="fill:none;stroke-width:5px;stroke:#db1e1e"/>
    <path transform="translate(13.79 22.26)" d="m1079 661-3.315 8.485 15.21 8.513 3.631-4.8z" style="fill:#fefeff"/>
    <path transform="translate(13.79 22.26)" d="m1073 654.6c4.7 5.024 16.73 17.33 23.65 19.12" style="fill:none;stroke-width:3px;stroke:#000"/>
    <path transform="translate(13.79 22.26)" d="m768.2 477.4c36.66-20.6 105.8-26.74 187.6 13.91-57.45-15.32-130-31.35-187.6-13.91z" style="fill:#db1e1e"/>
    <path transform="translate(13.79 22.26)" d="m855.6 556.1c41.55-4.941 82.79-11.59 128 3.535-47.58-19.62-87.77-11.52-128-3.535z" style="fill:#db1e1e"/>
    <path transform="translate(13.79 22.26)" d="m627.9 634.6c15.78-21.86 57.77-55.41 86.27-70-31.33 13.15-75.14 45.84-86.27 70z" style="fill:#db1e1e"/>
  </g>
  <g>
    <path transform="translate(13.79 22.26)" d="m1778 501.1-219.8-21.09-14.57 18.06c-8.2 35.78-19.19 78.73-18.26 124.6 3.237 45.71 1.328 69.91 31.34 113.7 18.21 17.57 30.78 37.59 63.1 43.68 7.918-12.82 93-13.79 137.6-37.54l59.25-54.13-15.37-83.96zm-116.8 27.57c31.87 0.88 61.14 4.77 57.86 46.46-9.171 34.93-39.19 44.84-77.69 44.57-36.75-1.56-56.9-13.94-57.14-39.29 4.254-50.29 41.09-50.28 76.97-51.74zm18.3 153.6c10.26-0.527 49.28-5.873 59.76 40.52-11.42 27.23-34.12 32.42-57.98 35.35-35.4 5.091-51.94-8.98-60.52-31.14-10.3-21.17 22.05-37.28 58.75-44.72z" style="fill:#fefeff"/>
  </g>
  <g>
    <path transform="translate(13.79 22.26)" d="m1550 488.6c-21.39 43.7-31.37 139.1-20.31 190.2 12.07 55.76 71.28 116.2 95.5 98.03 15.62-11.73 48.68-8.651 78.52-17.26 29.87-8.617 60.44-16.72 86.72-24.46" style="fill:none;stroke-width:3px;stroke:#000"/>
  </g>
  <g>
    <path transform="translate(13.79 22.26)" d="m1629 673.8a46.41 46.41 0 0 0-17.45 24.2c-3.742 11.27-10.76 15.18-21.6 17.06" style="fill:none;stroke-width:3px;stroke:#000"/>
    <path transform="translate(13.79 22.26)" d="m1558 638.1c-12.64 19.21-6.361 35.1 6.973 41.66" style="fill:none;stroke-width:3px;stroke:#000"/>
    <path transform="translate(13.79 22.26)" d="m1558 675c-3.458 9-3.811 22.22 15.23 36.88" style="fill:none;stroke-width:3px;stroke:#000"/>
    <path transform="translate(13.79 22.26)" d="m1604 693.4c0.615 2.742 2.047 6.07-3.649 8.355-3.484 1.4-7.2-2.69-10.58-10.6 5.154-3.051 11.22-11.2 14.23 2.245z" style="fill:#ffc3c3;stroke-width:3px;stroke:#000"/>
  </g>
  <g>
    <path transform="translate(13.79 22.26)" d="m1710 757.8a131.8 131.8 0 0 1-20.41 4.058c-13.4 1.676-28.73 2.418-42.02-2.675s-24.22-16.18-28.37-36.96c-2.29-11.47 5.049-18.64 16.72-25.89s26.91-12.01 40.08-13.22c13.98-1.29 29.18-0.543 41.79 4.209s22.61 13.76 25.3 28.26c3.206 17.3-2.907 26.29-14.12 33.78a69.13 69.13 0 0 1-18.98 8.439zm-2.242-7.049a60.19 60.19 0 0 0 16.5-8.988c21.75-14.78 13.19-42.22-16.06-54.77-11.77-3.622-26.09-3.462-39.12-1.342-11.92 1.939-25.85 7.507-35.82 15.01s-14.77 13.68-11.95 23.02c5.919 19.64 14.89 26.86 27.42 31.72s27.65 3.052 40.27 0.559a118.7 118.7 0 0 0 18.76-5.217z"/>
  </g>
  <g>
    <path transform="translate(13.79 22.26)" d="m1670 520.9a150.1 150.1 0 0 0-24.1 2.171c-15.41 2.543-32.56 6.784-45.03 16.95s-19.87 26.33-15.78 51.21c2.257 13.74 15.62 22.36 31.46 26.69a113.6 113.6 0 0 0 49.51 1.675c15.89-3.174 32.27-9.055 44.14-18.61s19.1-23.05 16.02-40.35c-3.675-20.63-16.45-31.72-31.88-36.47a82.89 82.89 0 0 0-24.34-3.26zm0.47 8.717a73.42 73.42 0 0 1 21.86 4.7c30.04 9.514 34.37 46.33 7.472 70.22-11.42 8-27.21 12.56-42.4 14.48a103.2 103.2 0 0 1-45.58-5.108c-14.07-5.185-24.23-13.52-25.03-25.02-1.666-24.17 5.185-35.31 16.91-44.97s29.09-12.61 43.99-13.98a137.6 137.6 0 0 1 22.78-0.314z"/>
  </g>
  <g>
    <path transform="translate(13.79 22.26)" d="m1680 761.1 68.3-21.64-4-65.65-62.65 4.553z" style="fill:#fefeff"/>
    <path transform="translate(13.79 22.26)" d="m1673 682.2c7.368 32.77 1.427 64.89-3.864 97.04l11.14-17.72c2.659-38.36 2.635-69.44 0.547-94.91z"/>
  </g>
  <g>
    <path transform="translate(13.79 22.26)" d="m1660 518.3 70-2.741 10.11 107.1-64.34-0.2z" style="fill:#fefeff"/>
    <path transform="translate(13.79 22.26)" d="m1668 618.8c1.078-40.25-11.14-77.83-22.71-115.5l16.66 20.34 16.96 112.7z"/>
  </g>
  <g>
    <path transform="translate(13.79 22.26)" d="m1460 642.9c42.48 56.83 86.31 77.71 154.9 130.8 34.99-8.583 78.96-11.39 121.1-15.4l21.94-2.907 60.22-9.587 5.831 14.83 2.645 23.22-10.58-5.768-0.932 15.19-2.992 4.655-8.892-3.274-3.885-6.821c-1.389 7.6-1.641 16.44-7.578 19.1-6.063-1.837-8-6.363-10.22-10.71-5.895 8.016-23.67 10.46-35.91 15.1l-138.8 27.98c-20.06 4.835-35.96-0.338-49.62-10.9l-75.45-62.76c-37.06-27.9-68.9-47.11-97.61-80.98l-32.1-26.36c4.877-31.73 41.57-64.07 96.73-55.08 6.167 13.03 10.62 25.25 11.27 39.69z" style="fill:#fff"/>
  </g>
  <g>
    <path transform="translate(13.79 22.26)" d="m1450 607.9c7.911 14.87 11.59 32.66 8.243 55.3" style="fill:none;stroke-miterlimit:4.9;stroke-width:3px;stroke:#000"/>
    <path transform="translate(13.79 22.26)" d="m1460 642.6c41.61 54.9 103.6 92.25 156.3 131.9" style="fill:none;stroke-miterlimit:4.9;stroke-width:3px;stroke:#000"/>
    <path transform="translate(13.79 22.26)" d="m1605 782.2c9.413-9.676 16.62-10.41 24.37-11.59 30.53-4.64 88.05-11.89 126.9-15.63" style="fill:none;stroke-miterlimit:4.9;stroke-width:3px;stroke:#000"/>
    <path transform="translate(13.79 22.26)" d="m1368 678.1c7.691 2.318 11.31 7.7 33.4 27.01 49.64 43.4 97.42 69.97 153.2 120.6 17.4 15.81 33.69 17.98 48.54 14.85 48.55-10.23 82.1-17.27 127.7-26.56 23.67-4.823 36.04-6.159 51.46-17.83" style="fill:none;stroke-miterlimit:4.9;stroke-width:3px;stroke:#000"/>
    <path transform="translate(13.79 22.26)" d="m1777 768.9 3.037 13.82 0.609 12.11c3.108 7.584 8.055 12.83 13.13 10.4 3.083-1.661 4.855-13.62 4.7-23.44-0.062-3.864-1.662-10.58-4.108-17.37" style="fill:none;stroke-miterlimit:4.9;stroke-width:3px;stroke:#000"/>
    <path transform="translate(13.79 22.26)" d="m1796 762.8 2.859 13.2 0.565 11.57c2.934 7.243 7.611 12.26 12.42 9.928 2.92-1.59 3.7-11.61 3.562-20.99-0.055-3.692-2.416-12.49-4.725-18.98" style="fill:none;stroke-miterlimit:4.9;stroke-width:3px;stroke:#000"/>
    <path transform="translate(13.79 22.26)" d="m1820 752a39.05 39.05 0 0 1 5.54 13.13c3.979 19.19-1.069 21.28-9.381 12.6" style="fill:none;stroke-miterlimit:4.9;stroke-width:3px;stroke:#000"/>
    <path transform="translate(13.79 22.26)" d="m1791 805.5c-0.116 0.98-0.234 2.033-0.353 3.167 1.576 4.442 3.515-2.55 5.486-7.7-2.233 3.62-3.748 4.336-5.133 4.533z" style="fill:#fefeff;stroke-miterlimit:4.9;stroke-width:2px;stroke:#000"/>
    <path transform="translate(13.79 22.26)" d="m1810 797.5c-0.053 0.852-0.106 1.767-0.155 2.752 1.422 3.7 2.681-2.463 4.038-7.047-1.2 2.112-2.421 4.072-3.883 4.295z" style="fill:#fefeff;stroke-miterlimit:4.9;stroke-width:2px;stroke:#000"/>
    <path transform="translate(13.79 22.26)" d="m1824 784.2c0.087 0.651 0.189 1.349 0.3 2.1 1.971 2.564 2.165-2.281 2.713-5.952-0.43 1.925-0.553 4.194-3.013 3.852z" style="fill:#fefeff;stroke-miterlimit:4.9;stroke-width:2px;stroke:#000"/>
  </g>
  <g>
    <path transform="translate(13.79 22.26)" d="m1670 591.9 49.32-18.74 174.5-33.63c-17.56-79.27-55.59-137.9-125.9-164.1-102.4-39.13-200.2-2.541-262.5 19.09-195.3 75.23-259.1 224.2-255.3 311.2l39.68-66.61c-2.532 23.84-4.675 47.52 11.1 63.74 22.79-58.01 72.75-108.9 165-148.7l41.98-16.87 39.17-41.57c10.54-6.892 17.22-9.851 24.78-13.71-28.84 29.49-34.66 67.56-26.46 110.8 17.02-51.12 67.48-85.18 170.9-92.21-28.28 25.34-39.43 57.46-46.23 91.32z" style="fill:#ff2424"/>
    <path transform="translate(13.79 22.26)" d="m1693 740.5c28.28 5.271 47.65-5.091 65.79-17.63l139.7-113.3c-10.76 153.6-158.4 195-205.5 130.9z" style="fill:#ff2424"/>
    <path transform="translate(13.79 22.26)" d="m1687 687c16.46-42.81 40.44-84.81 102.9-122.6-34.3-4.81-63.73 6.585-94.08 14.9 19.11-15.58 88.81-55.37 197.1-43.89 3.554 26.36 6.97 52.7 5.971 78.57-41.76 57.92-89.07 101.5-147.7 115.8 21.83-18.87 42.34-38.72 53-65.83-39.16 26.67-78.22 32.98-117.2 23.11z" style="fill:#1f1f1f"/>
    <path transform="translate(13.79 22.26)" d="m1808 395.1-5.176 44.59 0.217 37.14 15.41 85.94 22.92 68.7 36.84 57.49 15.4-44.48-30.4-25.7-21.78-62.89-16.4-76.68-0.057-32.11 4.865-31.91z" style="fill:#fff"/>
    <path transform="translate(13.79 22.26)" d="m1365 477.5 16.44 37.25 25.97 32.13 28.96 23-37.76 21.46-23.06-31.34-19.08-26.66-13.22-39.27z" style="fill:#fff"/>
  </g>
  <g>
    <path transform="translate(13.79 22.26)" d="m1855 623.3c-53.14 48.24-108 81.66-168.8 62.68 24.98-64.83 64.24-102.5 111-125.8" style="fill:none;stroke-width:5px;stroke:#db1e1e"/>
    <path transform="translate(13.79 22.26)" d="m1807 662.8c-29.57 55.51-67.43 85.11-117.4 76.93 45.67 47.16 117.5 32.56 157.5-11.41 16.5-18.12 57.26-67.52 50.63-138" style="fill:none;stroke-width:5px;stroke:#db1e1e"/>
    <path transform="translate(13.79 22.26)" d="m1790 564.4c-41.34-4.076-80.5 8.263-118.8 27.62 5.865-43.43 20.88-83.32 74.19-108.4" style="fill:none;stroke-width:5px;stroke:#db1e1e"/>
    <path transform="translate(13.79 22.26)" d="m1716 501.2c-120.7 8.927-153.4 49.24-171.2 94.85-11.74-72.95-0.788-137.2 150.8-147.6" style="fill:none;stroke-width:5px;stroke:#db1e1e"/>
    <path transform="translate(13.79 22.26)" d="m1606 466.2c-63.44 20.88-78.87 50.78-102.9 80.17 16.67-71.86 58.04-128.5 182.5-133.8" style="fill:none;stroke-miterlimit:4.9;stroke-width:5px;stroke:#db1e1e"/>
    <path transform="translate(13.79 22.26)" d="m1891 601.8c5.076-6.438 8.547-13.27 7.244-21.29-13.12-183.7-143.3-239.3-271.4-218.3-257.8 42.15-382 212.7-377 346.2 40.77-90.83 102.7-140.5 174.5-171.1" style="fill:none;stroke-miterlimit:4.9;stroke-width:5px;stroke:#db1e1e"/>
    <path transform="translate(13.79 22.26)" d="m1291 639.8c-5.08 28.54-2.662 49.55 10.72 64.03 30.53-83.91 105.8-121 180.9-158.4" style="fill:none;stroke-miterlimit:4.9;stroke-width:5px;stroke:#db1e1e"/>
    <path transform="translate(13.79 22.26)" d="m1467 554.5c15.4 2.934 36.02 5.839 52.02 5.293" style="fill:none;stroke-miterlimit:4.9;stroke-width:5px;stroke:#db1e1e"/>
    <path transform="translate(13.79 22.26)" d="m1734 669 57.66-43.59c-16.48 18.88-36.38 32.34-57.66 43.59z" style="fill:#db1e1e"/>
    <path transform="translate(13.79 22.26)" d="m1760 480.6c32.98-7.385 70.72-10.86 106.2 10.15-42.99-17.1-73.78-12.16-106.2-10.15z" style="fill:#db1e1e"/>
    <path transform="translate(13.79 22.26)" d="m1722 416.2c28.44 6.832 56.87 13.69 84.66 26.55-25.41-18.56-54.81-23.32-84.66-26.55z" style="fill:#db1e1e"/>
    <path transform="translate(13.79 22.26)" d="m1503 452.4c-56.44 25.19-106 53.89-149.1 85.88 37.01-38.39 87.72-66.16 149.1-85.88z" style="fill:#db1e1e"/>
    <path transform="translate(13.79 22.26)" d="m1715 545.7c22.88-16.36 48.09-30.66 82.72-24.39-35.12-18.3-57.98 3.179-82.72 24.39z" style="fill:#db1e1e"/>
  </g>
  <g>
    <path transform="translate(13.79 22.26)" d="m1765 613.1c2.395-66.38-23.75-89.04-51.76-108.8" style="fill:none;stroke-miterlimit:4.9;stroke-width:5px;stroke:#000"/>
    <path transform="translate(13.79 22.26)" d="m1768 678.1c-1.637 29.52-5.826 58.59-33.82 83.41" style="fill:none;stroke-miterlimit:4.9;stroke-width:5px;stroke:#000"/>
  </g>
  <g>
    <path transform="translate(13.79 22.26)" d="m1869 502.6 75.4-41.6c29.76-16.42 6.732-26.78-6.941-27.77l-114.5-10.2z" style="fill:#ffcdcd"/>
    <path transform="translate(13.79 22.26)" d="m1876 522.3-9.1-22.71c8.647-6.8 21.04-16.32 24.63-24.24a30.7 30.7 0 0 1 0.516 15.03c7.047-8.02 13.44-15.92 17.66-23.43a12.77 12.77 0 0 1 1.426 10.2l39.46-25.71c6.862-8.437 0.506-10.22-4.9-12.48-56.66-5.677-74.91 16.96-120.8-6.512l-22.16-28.76c44.21 4.713 103-0.662 150.1 22.54 10.68 5.525 25.95 9.6 32.95 20.52-5.147 10.13-21 17.46-31.29 24.62z" style="fill:#fefeff"/>
    <path transform="translate(13.79 22.26)" d="m1892 624.5 74.42 37.63c29.39 14.86 7.618 25.37-5.514 28.13l-104.4 21.98c14.13-28.57 28.84-56.98 35.47-87.74z" style="fill:#ffcdcd"/>
    <path transform="translate(13.79 22.26)" d="m1892 602.3-4.824 23.67c8.7 6.114 22.48 18.24 26.32 25.84a31.33 31.33 0 0 0-0.163-14.98c7.2 7.448 13.77 14.83 18.2 21.98a13.11 13.11 0 0 0 0.934-10.25l39.48 22.62c7.041 7.876 0.944 10.12-4.206 12.78-54.8 9.878-64.32-11.44-107.9 15.33l-25.91 32.98c42.75-7.989 94.92-10.88 139.7-37.46 10.14-6.291 21.81-10.53 28.13-21.91-5.451-9.688-16.62-15.46-26.93-21.82z" style="fill:#fefeff"/>
    <path transform="translate(13.79 22.26)" d="m1801 403.8c58.72 3.415 117.9 2.338 173.8 31.87 16.09 8.5 13.99 15.11-3.183 26.01l-95.2 60.44" style="fill:none;stroke-miterlimit:4.9;stroke-width:3px;stroke:#000"/>
    <path transform="translate(13.79 22.26)" d="m1832 732.8c54.47-8.676 109.7-12.66 159.5-48.59 14.32-10.34 11.84-17.12-5.03-27.11l-93.54-55.39" style="fill:none;stroke-miterlimit:4.9;stroke-width:3px;stroke:#000"/>
    <path transform="translate(13.79 22.26)" d="m1779 393.7 17.84 5.844c27.31 13.73 55.58 63.12 84.2 126 3.466 11.4 1.376 18.12-1.151 24.48-29.52-93.84-62.99-138.8-100.9-156.3z" style="fill:#db1e1e"/>
    <path transform="translate(13.79 22.26)" d="m1890 589.5 3.847 10.57c-1.089 39.57-10.63 85.13-62.95 134.3l-16.59 5.69c36.2-32.99 75.35-61.13 75.69-150.6z" style="fill:#db1e1e"/>
  </g>
  <g>
    <path transform="translate(13.79 22.26)" d="m1796 633.3 108.8-43.41 4.874-9.171c-1.184-4.583-6.929-4.53-10.98-6.2l-98.03 2.438c-6.1 22.24-10.72 43.35-4.683 56.34z" style="fill:#fefeff"/>
    <path transform="translate(13.79 22.26)" d="m1801 576.6 88.62-2.084c30.51-0.718 22.98 12.28 1.849 20.56l-93.62 36.69" style="fill:none;stroke-miterlimit:4.9;stroke-width:3px;stroke:#000"/>
    <path transform="translate(13.79 22.26)" d="m1873 574.7a157.4 157.4 0 0 0-5.779 30.35" style="fill:none;stroke-miterlimit:4.9;stroke-width:3px;stroke:#000"/>
    <path transform="translate(13.79 22.26)" d="m1837 576.8a328.9 328.9 0 0 0-8.056 42.17" style="fill:none;stroke-miterlimit:4.9;stroke-width:3px;stroke:#000"/>
    <path transform="translate(13.79 22.26)" d="m1802 565.3c-2.331 26.48-18.83 52.25-1.382 74.76" style="fill:none;stroke-miterlimit:4.9;stroke-width:5px;stroke:#db1e1e"/>
  </g>
  <metadata>
    <rdf:RDF>
      <cc:Work rdf:about="">
        <dc:title>clt</dc:title>
      </cc:Work>
    </rdf:RDF>
  </metadata>
  <text id="cordText" x="111.21931" y="97.679565" style="font-family:Meiryo;font-size:40px;letter-spacing:0px;line-height:1.25;word-spacing:0px" xml:space="preserve"><tspan id="cord" x="111.21931" y="97.679565" style="font-family:Consolas">x: y:</tspan></text>
  <script>
  <![CDATA[
  const cord = document.getElementById('cord')
  const cTex = document.getElementById('cordText')
  const clt = document.getElementById('clt')
  clt.addEventListener('mousemove',(e)=>{
    cord.innerHTML = `x: ${e.pageX} y: ${e.pageY}`
    cTex.setAttribute('transform',`translate(${e.pageX},${e.pageY})`)
  })
  ]]>
  </script>
</svg>
